<svg xmlns="http://www.w3.org/2000/svg" xmlns:xlink="http://www.w3.org/1999/xlink" width="36" height="29" viewBox="0 0 36 29"><defs><path id="93d6a" d="M171.84 845.99a7.3 7.3 0 0 0 7.43-7.36c0-4.6-3.4-7.35-7.43-7.35-1.64 0-3.17.62-4.3 1.51a7.29 7.29 0 0 1-.34-2.41c0-4.5 4.08-9.32 8.84-11.28l-1.08-2.08c-8.21 3.82-11.95 10.27-11.95 17.74 0 1.85.34 5.05 1.98 7.58 1.42 2.19 3.46 3.65 6.85 3.65zm19.72 0a7.27 7.27 0 0 0 7.42-7.36c0-4.6-3.34-7.35-7.42-7.35-1.64 0-3.12.62-4.3 1.51a7.29 7.29 0 0 1-.35-2.41c0-4.5 4.08-9.32 8.84-11.28l-1.07-2.08c-8.22 3.82-11.96 10.27-11.96 17.74 0 1.85.34 5.05 1.99 7.58a7.6 7.6 0 0 0 6.85 3.65z"/></defs><g><g transform="translate(-163 -817)"><use fill="#e9e9e9" xlink:href="#93d6a"/></g></g></svg>