<svg width="58" height="58" viewBox="0 0 58 58" fill="none" xmlns="http://www.w3.org/2000/svg">
<path d="M28.75 50.75C40.7622 50.75 50.5 41.0122 50.5 29C50.5 16.9878 40.7622 7.25 28.75 7.25C16.7378 7.25 7 16.9878 7 29C7 41.0122 16.7378 50.75 28.75 50.75Z" stroke="white" stroke-width="3" stroke-miterlimit="10"/>
<path d="M8.49609 21.75H49.5039" stroke="white" stroke-width="3" stroke-linecap="round" stroke-linejoin="round"/>
<path d="M8.49609 36.25H49.5039" stroke="white" stroke-width="3" stroke-linecap="round" stroke-linejoin="round"/>
<path d="M29 50.1607C34.0051 50.1607 38.0625 40.6867 38.0625 28.9998C38.0625 17.3129 34.0051 7.83887 29 7.83887C23.9949 7.83887 19.9375 17.3129 19.9375 28.9998C19.9375 40.6867 23.9949 50.1607 29 50.1607Z" stroke="white" stroke-width="3" stroke-miterlimit="10"/>
</svg>
