<svg height="512pt" viewBox="0 0 512.00282 512" width="512pt" xmlns="http://www.w3.org/2000/svg"><path d="m256 56.75 38.964844-46.746094 22.609375 56.496094 51.5-32.417969 4.046875 60.71875 58.996094-14.914062-14.917969 58.996093 60.722656 4.046876-32.417969 51.5 56.496094 22.609374-46.746094 38.960938 46.746094 38.964844-56.496094 22.609375 32.417969 51.5-60.722656 4.046875 14.917969 58.996094-58.996094-14.917969-4.046875 60.722656-51.5-32.417969-22.609375 56.496094-38.964844-46.746094-38.960938 46.746094-22.609374-56.496094-51.503907 32.417969-4.042969-60.722656-58.996093 14.917969 14.914062-58.996094-60.71875-4.046875 32.417969-51.5-56.5-22.609375 46.75-38.964844-46.75-38.960938 56.5-22.609374-32.417969-51.5 60.71875-4.046876-14.914062-58.996093 58.996093 14.914062 4.042969-60.71875 51.503907 32.417969 22.609374-56.496094zm0 0" fill="#c8e7f9"/><path d="m508.402344 287.28125-37.527344-31.28125 37.527344-31.277344c2.707031-2.257812 4.027344-5.769531 3.476562-9.246094-.550781-3.480468-2.894531-6.414062-6.164062-7.722656l-45.359375-18.152344 26.027343-41.347656c1.875-2.980468 2.046876-6.726562.449219-9.867187-1.601562-3.136719-4.734375-5.203125-8.246093-5.4375l-48.75-3.246094 11.976562-47.367187c.863281-3.414063-.132812-7.03125-2.625-9.523438-2.488281-2.488281-6.109375-3.484375-9.523438-2.621094l-47.367187 11.976563-3.246094-48.75c-.234375-3.515625-2.300781-6.644531-5.4375-8.246094-3.136719-1.597656-6.886719-1.429687-9.867187.445313l-41.347656 26.027343-18.152344-45.359375c-1.308594-3.269531-4.242188-5.609375-7.71875-6.160156-3.476563-.550781-6.992188.769531-9.246094 3.472656l-31.28125 37.53125-31.28125-37.527344c-2.253906-2.707031-5.765625-4.027343-9.246094-3.476562-3.476562.550781-6.410156 2.894531-7.71875 6.164062l-18.152344 45.359376-41.347656-26.027344c-2.980468-1.875-6.726562-2.046875-9.867187-.449219-3.136719 1.601563-5.203125 4.734375-5.4375 8.246094l-3.246094 48.75-47.367187-11.976563c-3.414063-.863281-7.03125.132813-9.523438 2.625-2.488281 2.488282-3.484375 6.105469-2.621094 9.519532l11.976563 47.367187-48.75 3.246094c-3.515625.234375-6.648438 2.300781-8.246094 5.441406-1.597656 3.136719-1.429687 6.886719.445313 9.863281l26.027343 41.351563-45.359375 18.148437c-3.269531 1.3125-5.609375 4.242188-6.160156 7.722656-.550781 3.476563.765625 6.988282 3.472656 9.246094l37.53125 31.277344-37.53125 31.28125c-2.703125 2.257812-4.023437 5.769531-3.472656 9.246094.550781 3.480468 2.890625 6.414062 6.160156 7.722656l45.359375 18.152344-26.023437 41.347656c-1.878906 2.980469-2.046875 6.726562-.449219 9.867188 1.597656 3.136718 4.730469 5.203124 8.246094 5.4375l48.75 3.246093-11.976563 47.367188c-.863281 3.414062.132813 7.03125 2.625 9.523437 2.488282 2.488282 6.109375 3.484375 9.519532 2.621094l47.367187-11.976562 3.25 48.75c.230469 3.515624 2.296875 6.644531 5.4375 8.246093 3.136719 1.597657 6.882813 1.429688 9.867187-.449219l41.347657-26.023437 18.152343 45.359375c1.308594 3.269531 4.238282 5.609375 7.71875 6.160156 3.476563.550782 6.992188-.765625 9.246094-3.472656l31.277344-37.53125 31.28125 37.527344c1.917969 2.300781 4.742188 3.597656 7.683594 3.597656.519531 0 1.042968-.039062 1.5625-.121094 3.480468-.550781 6.410156-2.890625 7.722656-6.164062l18.148438-45.359375 41.351562 26.027343c2.976562 1.878907 6.726562 2.046876 9.867188.449219 3.136718-1.601562 5.203124-4.730469 5.4375-8.246093l3.246093-48.75 47.367188 11.976562c3.414062.863281 7.03125-.132812 9.519531-2.625 2.492188-2.488281 3.488281-6.105469 2.625-9.519531l-11.976562-47.367188 48.75-3.25c3.515624-.230469 6.644531-2.296875 8.246093-5.4375 1.601563-3.136719 1.429688-6.886719-.445312-9.867187l-26.027344-41.347656 45.359375-18.152344c3.269531-1.308594 5.609375-4.238282 6.160156-7.71875.550782-3.476563-.769531-6.988282-3.476562-9.246094zm-66.613282 21.007812c-2.757812 1.105469-4.878906 3.375-5.796874 6.195313-.917969 2.824219-.53125 5.90625 1.046874 8.417969l23.488282 37.308594-43.992188 2.933593c-2.960937.195313-5.679687 1.695313-7.425781 4.097657-1.742187 2.402343-2.332031 5.453124-1.601563 8.328124l10.804688 42.742188-42.742188-10.804688c-2.875-.730468-5.925781-.140624-8.328124 1.601563-2.402344 1.746094-3.902344 4.464844-4.101563 7.425781l-2.929687 43.992188-37.308594-23.488282c-2.511719-1.582031-5.597656-1.964843-8.417969-1.046874-2.820313.917968-5.089844 3.039062-6.195313 5.792968l-16.378906 40.933594-28.226562-33.867188c-1.898438-2.28125-4.714844-3.597656-7.683594-3.597656-2.964844 0-5.78125 1.316406-7.679688 3.597656l-28.226562 33.867188-16.382812-40.933594c-1.101563-2.753906-3.371094-4.875-6.191407-5.792968-2.824219-.917969-5.90625-.535157-8.417969 1.046874l-37.3125 23.488282-2.929687-43.992188c-.195313-2.960937-1.699219-5.679687-4.097656-7.425781-2.402344-1.742187-5.453125-2.332031-8.332031-1.605469l-42.742188 10.808594 10.808594-42.742188c.726562-2.875.140625-5.925781-1.605469-8.328124-1.742187-2.402344-4.464844-3.902344-7.425781-4.101563l-43.988282-2.929687 23.488282-37.308594c1.578125-2.511719 1.964844-5.59375 1.046875-8.417969-.917969-2.820313-3.039063-5.089844-5.796875-6.195313l-40.929688-16.378906 33.867188-28.226562c2.277344-1.898438 3.597656-4.714844 3.597656-7.683594 0-2.964844-1.320312-5.78125-3.597656-7.679688l-33.867188-28.226562 40.929688-16.382812c2.757812-1.101563 4.878906-3.371094 5.796875-6.191407.917969-2.824219.53125-5.90625-1.046875-8.417969l-23.488282-37.308593 43.992188-2.929688c2.960938-.199219 5.679688-1.699219 7.425781-4.101562 1.742188-2.402344 2.332031-5.453125 1.601563-8.328125l-10.804688-42.742188 42.742188 10.804688c2.875.730468 5.925781.140625 8.328125-1.601563 2.402343-1.746093 3.902343-4.464843 4.097656-7.425781l2.933594-43.992188 37.308593 23.488282c2.511719 1.582031 5.59375 1.964844 8.417969 1.046875 2.820313-.914063 5.089844-3.039063 6.191407-5.792969l16.382812-40.933594 28.226562 33.867188c1.898438 2.28125 4.714844 3.597656 7.679688 3.597656 2.96875 0 5.785156-1.316406 7.683594-3.597656l28.226562-33.867188 16.378906 40.933594c1.105469 2.753906 3.375 4.878906 6.195313 5.792969 2.820313.917969 5.90625.535156 8.417969-1.046875l37.308594-23.484375 2.929687 43.988281c.199219 2.960938 1.699219 5.679688 4.101563 7.425781 2.402343 1.742188 5.453124 2.332031 8.328124 1.605469l42.742188-10.808594-10.804688 42.742188c-.730468 2.878906-.140624 5.929687 1.601563 8.328125 1.746094 2.402343 4.464844 3.902343 7.425781 4.101562l43.992188 2.929688-23.488282 37.3125c-1.578124 2.507812-1.964843 5.59375-1.046874 8.414062.917968 2.824219 3.039062 5.09375 5.796874 6.195313l40.929688 16.378906-33.867188 28.226562c-2.277343 1.902344-3.597656 4.714844-3.597656 7.683594s1.320313 5.78125 3.597656 7.683594l33.867188 28.226562zm0 0"/><path d="m386 321h-260c-5.523438 0-10 4.480469-10 10 0 5.523438 4.476562 10 10 10h260c5.523438 0 10-4.476562 10-10 0-5.519531-4.476562-10-10-10zm0 0"/><path d="m256 361c-5.507812 0-10 4.492188-10 10 0 5.511719 4.492188 10 10 10 5.511719 0 10-4.488281 10-10 0-5.507812-4.488281-10-10-10zm0 0"/><path d="m366 361h-70c-5.507812 0-10 4.492188-10 10 0 5.511719 4.492188 10 10 10h70c5.511719 0 10-4.488281 10-10 0-5.507812-4.488281-10-10-10zm0 0"/><path d="m216 361h-70c-5.507812 0-10 4.492188-10 10 0 5.511719 4.492188 10 10 10h70c5.511719 0 10-4.488281 10-10 0-5.507812-4.488281-10-10-10zm0 0"/><path d="m386 170.003906h-260c-5.523438 0-10 4.476563-10 10 0 5.523438 4.476562 10 10 10h260c5.523438 0 10-4.476562 10-10 0-5.523437-4.476562-10-10-10zm0 0"/><path d="m256 150.003906c5.511719 0 10-4.492187 10-10 0-5.511718-4.488281-10-10-10-5.507812 0-10 4.488282-10 10 0 5.507813 4.492188 10 10 10zm0 0"/><path d="m296 150.003906h70c5.511719 0 10-4.492187 10-10 0-5.511718-4.488281-10-10-10h-70c-5.507812 0-10 4.488282-10 10 0 5.507813 4.492188 10 10 10zm0 0"/><path d="m146 150.003906h70c5.511719 0 10-4.492187 10-10 0-5.511718-4.488281-10-10-10h-70c-5.507812 0-10 4.488282-10 10 0 5.507813 4.492188 10 10 10zm0 0"/><path d="m135.582031 300.738281c2.960938 0 7.800781-1.164062 7.800781-4.917969v-48.242187l25.800782 48.242187c1.757812 3.28125 4.757812 4.917969 9 4.917969 2.875 0 7.800781-1.132812 7.800781-4.917969 0 0 0-77.617187 0-78 0-3.835937-4.828125-4.800781-7.800781-4.800781-3.027344 0-7.800782.929688-7.800782 4.800781v48.238282l-23.160156-44.757813c-2.683594-5.011719-5.671875-8.28125-11.640625-8.28125-3.058593 0-7.796875 1.066407-7.796875 4.921875v77.878906c0 3.765626 4.855469 4.917969 7.796875 4.917969zm0 0"/><path d="m258.941406 226.699219c3.5625 0 4.921875-4 4.921875-6.960938 0-2.894531-1.414062-6.71875-4.921875-6.71875 0 0-42.632812 0-42.71875 0-2.90625 0-6.839844 1.5-6.839844 4.921875v77.878906c0 3.476563 3.929688 4.917969 6.839844 4.917969h42.71875c3.5 0 4.921875-3.746093 4.921875-6.71875 0-2.964843-1.378906-6.960937-4.921875-6.960937h-33.957031v-24.117188h18.238281c3.144532 0 4.921875-3.167968 4.921875-6 0-2.90625-1.660156-6.242187-4.921875-6.242187h-18.238281v-24zm0 0"/><path d="m303.449219 300.109375c2.027343 1.003906 4.515625 1.351563 6.613281 1.351563 3.585938 0 8.980469-1.1875 9.960938-5.28125l7.800781-32.398438s7.648437 32.269531 7.679687 32.398438c.964844 4.085937 6.410156 5.28125 9.957032 5.28125 5.601562 0 9-1.761719 10.203124-5.28125l23.757813-75.480469c.867187-2.609375-.859375-4.589844-3-5.820313-3.085937-1.773437-10.539063-3.722656-11.878906 1.261719l-18.960938 65.039063-10.199219-41.761719c-.71875-2.878907-3.242187-4.316407-7.558593-4.316407-4.402344 0-6.960938 1.4375-7.683594 4.316407l-10.199219 41.761719s-18.867187-64.722657-18.960937-65.039063c-1.441407-4.953125-8.757813-3.054687-11.878907-1.261719-2.046874 1.175782-3.863281 3.25-3 5.820313 0 0 23.652344 75.140625 23.757813 75.480469.589844 1.855468 1.9375 3.113281 3.589844 3.929687zm0 0"/></svg>