<svg xmlns="http://www.w3.org/2000/svg" width="191" height="24" viewBox="0 0 191 24">
  <g id="Vector_Smart_Object_copy_2" data-name="Vector Smart Object copy 2" transform="translate(-42.248 -91.051)">
    <g id="Сгруппировать_1" data-name="Сгруппировать 1">
      <path id="Контур_1" data-name="Контур 1" d="M208.814,95.821h0a5.193,5.193,0,0,0-5.523,5.247,5.111,5.111,0,0,0,1.395,3.611,3.027,3.027,0,0,0-1.386,2.588,3.076,3.076,0,0,0,.791,2.087,2.95,2.95,0,0,0-.791,2.007h0c0,2.178,2.313,3.69,5.519,3.69s5.519-1.512,5.519-3.69h0c0-2.178-2.313-3.69-5.519-3.69a8.054,8.054,0,0,0-3.039.546,1.9,1.9,0,0,1-.246-.949h0a1.849,1.849,0,0,1,.717-1.488,6.142,6.142,0,0,0,2.565.536,5.3,5.3,0,0,0,4.486-8.442h2.848V95.821Zm2.676,15.54h0c0,.979-1.079,1.658-2.672,1.658s-2.672-.679-2.672-1.658h0c0-.978,1.079-1.658,2.672-1.658S211.49,110.383,211.49,111.361Zm-2.676-7.129c-1.573,0-2.676-1.3-2.676-3.164s1.1-3.163,2.676-3.163,2.676,1.3,2.676,3.163S210.387,104.232,208.814,104.232Z" fill="#1a1818"/>
      <rect id="Прямоугольник_1" data-name="Прямоугольник 1" width="2.735" height="12.518" transform="translate(185.236 95.821)" fill="#1a1818"/>
      <path id="Контур_2" data-name="Контур 2" d="M223.449,96.781h-2.477v3.973H216.96V103.1h4.012v4.279h2.477V103.1h4.012v-2.346h-4.012Z" fill="#1a1818"/>
      <rect id="Прямоугольник_2" data-name="Прямоугольник 2" width="2.735" height="2.188" transform="translate(185.236 91.073)" fill="#1a1818"/>
      <path id="Контур_3" data-name="Контур 3" d="M46.984,93.261c2.634,0,4.282,1.414,4.282,3.982h3c0-3.4-2.329-6.085-6.37-6.187l0-.005H42.248v17.288h2.945v-4.9h2.7l0,0c4.041-.1,6.37-2.783,6.37-6.187h-3c0,2.57-1.65,3.982-4.286,3.982H45.193V93.261Z" fill="#1a1818"/>
      <path id="Контур_4" data-name="Контур 4" d="M230.3,91.051h-2.842V93.26H230.3v15.079h2.944V91.051Z" fill="#1a1818"/>
      <path id="Контур_5" data-name="Контур 5" d="M101.89,95.821h-2.86l-4.212,5.064h-.871V91.051H91.211v17.288h2.735v-5.4h.883l3.863,5.4h3.236l-4.85-6.718Z" fill="#1a1818"/>
      <path id="Контур_6" data-name="Контур 6" d="M163.695,95.821h-2.86l-4.212,5.064h-.871V91.051h-2.736v17.288h2.736v-5.4h.883l3.863,5.4h3.236l-4.85-6.718Z" fill="#1a1818"/>
      <path id="Контур_7" data-name="Контур 7" d="M59,97.135V95.821H56.26v12.518H59V98.865a6.43,6.43,0,0,1,3.334-1.2,2.88,2.88,0,0,1,1.12.176v-2.29a2.819,2.819,0,0,0-.74-.066A5.743,5.743,0,0,0,59,97.135Z" fill="#1a1818"/>
      <path id="Контур_8" data-name="Контур 8" d="M146.737,97.135V95.821H144v12.518h2.735V98.865a6.431,6.431,0,0,1,3.334-1.2,2.88,2.88,0,0,1,1.12.176v-2.29a2.815,2.815,0,0,0-.74-.066A5.744,5.744,0,0,0,146.737,97.135Z" fill="#1a1818"/>
      <path id="Контур_9" data-name="Контур 9" d="M197.161,95.483a5.76,5.76,0,0,0-3.9,1.654V95.821h-2.736v12.518h2.736v-9.5a5.4,5.4,0,0,1,2.893-1.178c1.612,0,2.258.833,2.258,2.489v8.187h2.735V99.728h0c0-.013,0-.024,0-.037C201.146,97.177,199.857,95.483,197.161,95.483Z" fill="#1a1818"/>
      <path id="Контур_10" data-name="Контур 10" d="M106.844,92.407h-.512l-4.054,4.947v.515h1.831v7.337c0,2.342,1.11,3.471,3.672,3.471a7.256,7.256,0,0,0,2.171-.339v-2.052a7.492,7.492,0,0,1-1.431.212c-1.287,0-1.675-.581-1.675-1.7V97.87h3.107V95.821h-3.107Z" fill="#1a1818"/>
      <path id="Контур_11" data-name="Контур 11" d="M180.483,92.407h-.512l-4.054,4.947v.515h1.831v7.337c0,2.342,1.11,3.471,3.672,3.471a7.255,7.255,0,0,0,2.17-.339v-2.052a7.493,7.493,0,0,1-1.432.212c-1.286,0-1.675-.581-1.675-1.7V97.87h3.107V95.821h-3.107Z" fill="#1a1818"/>
      <path id="Контур_12" data-name="Контур 12" d="M83.869,95.483c-3.611,0-6.155,2.84-6.155,6.6,0,4.115,2.786,6.6,6.678,6.6,3.089,0,4.239-1.2,4.239-1.2v-2.088a5.99,5.99,0,0,1-3.679,1.12,4.055,4.055,0,0,1-4.264-3.575h8.427l-.007-.042.072.042a7.757,7.757,0,0,0,.164-1.655C89.343,97.952,87.3,95.483,83.869,95.483Zm-.212,2.169c1.72,0,2.735,1.147,2.809,3.233H80.72C81.06,98.875,82.255,97.652,83.657,97.652Z" fill="#1a1818"/>
      <path id="Контур_13" data-name="Контур 13" d="M169.587,95.483c-3.611,0-6.155,2.84-6.155,6.6,0,4.115,2.786,6.6,6.677,6.6,3.089,0,4.239-1.2,4.239-1.2v-2.088a5.987,5.987,0,0,1-3.678,1.12,4.055,4.055,0,0,1-4.264-3.575h8.427l-.008-.042.072.042a7.756,7.756,0,0,0,.164-1.655C175.061,97.952,173.014,95.483,169.587,95.483Zm-.212,2.169c1.72,0,2.735,1.147,2.809,3.233h-5.746C166.777,98.875,167.973,97.652,169.374,97.652Z" fill="#1a1818"/>
      <path id="Контур_14" data-name="Контур 14" d="M135.654,95.483a7.871,7.871,0,0,0-4.139.985v2.3a6.562,6.562,0,0,1,3.609-1.121c2.625,0,3.59,1.448,3.59,3.762v.392a5.854,5.854,0,0,0-3.773-1.565c-2.91,0-4.574,1.834-4.574,4.219s1.664,4.22,4.574,4.22a5.854,5.854,0,0,0,3.773-1.565v1.224h2.735v-7.6h-.013C141.274,97.673,139.372,95.483,135.654,95.483Zm-.24,11.145a2.168,2.168,0,1,1,0-4.335,6.354,6.354,0,0,1,3.3,1.181v1.973A6.354,6.354,0,0,1,135.414,106.628Z" fill="#1a1818"/>
      <path id="Контур_15" data-name="Контур 15" d="M70.062,95.483h0c-3.536,0-6.187,2.559-6.187,6.6s2.65,6.6,6.187,6.6h0c3.536,0,6.187-2.558,6.187-6.6S73.6,95.483,70.062,95.483Zm0,11.029c-1.948,0-3.339-1.734-3.339-4.43s1.391-4.43,3.339-4.43,3.339,1.734,3.339,4.43S72.01,106.512,70.062,106.512Z" fill="#1a1818"/>
      <path id="Контур_16" data-name="Контур 16" d="M124.729,95.483a5,5,0,0,0-3.559,2.035,3.234,3.234,0,0,0-3.336-2.035,4.667,4.667,0,0,0-3.24,1.689V95.821h-2.735v12.518h2.735V98.822a3.8,3.8,0,0,1,2.316-1.159c1.378,0,1.845.587,1.845,2.244v8.433h2.735V99.253h0c0-.139-.012-.275-.024-.407a3.835,3.835,0,0,1,2.341-1.183c1.376,0,1.844.585,1.845,2.236v8.441h2.735V99.447h0v0C128.384,96.994,127.2,95.483,124.729,95.483Z" fill="#1a1818"/>
    </g>
  </g>
</svg>
